<?xml version="1.0" encoding="utf-8"?>
<!-- Generator: Adobe Illustrator 23.1.1, SVG Export Plug-In . SVG Version: 6.00 Build 0)  -->
<svg version="1.1" id="Layer_1" xmlns="http://www.w3.org/2000/svg" xmlns:xlink="http://www.w3.org/1999/xlink" x="0px" y="0px"
	 viewBox="0 0 72 47" style="enable-background:new 0 0 72 47;" xml:space="preserve">
<style type="text/css">
	.st0{fill:#002157;}
	.st1{fill:#009ADE;}
	.st2{fill:#FBAE17;}
	.st3{fill:#B2D235;}
	.st4{fill:#EE5BA0;}
</style>
<g>
	<g>
		<g>
			<polygon class="st0" points="39.55,45.59 32.41,45.59 35.59,27.61 28.13,27.61 32.46,21.96 50.69,21.96 49.69,27.61 42.73,27.61 
							"/>
			<path class="st0" d="M70.82,27.43l0.94-5.31c-1.38-0.33-3.3-0.8-5.82-0.8c-9.12,0-14.61,6.19-15.78,12.79
				C48.93,41.07,53,45.85,60.84,46.19c3.24,0.14,5.98-0.58,6.81-0.82l0.9-5.12c-1.19,0.39-2.91,0.82-4.74,0.82
				c-5.02,0-6.96-3.21-6.25-7.23c0.66-3.75,4.05-7.04,8.44-7.16c0.27-0.01,0.52,0.01,0.76,0.03C68.44,26.84,69.78,27.18,70.82,27.43
				z"/>
			<g>
				<polygon class="st0" points="15.06,39.74 9.51,47.01 0.24,21.95 9.72,21.95 				"/>
				<polygon class="st1" points="15.89,38.65 32.02,17.57 23.5,17.57 				"/>
				<polygon class="st2" points="38.54,0.01 29.82,0.01 26.13,10.26 32.54,10.26 				"/>
				<polygon class="st3" points="21.6,10.26 15.89,38.65 26.13,10.26 				"/>
				<polygon class="st4" points="26.13,10.26 15.89,38.65 32.54,10.26 				"/>
			</g>
		</g>
	</g>
</g>
</svg>
